<svg width="24" height="24" viewBox="0 0 24 24" fill="none" xmlns="http://www.w3.org/2000/svg">
<g clip-path="url(#clip0_1_2)">
<rect width="24" height="24" fill="white"/>
<rect x="0.5" y="0.5" width="23" height="23" rx="1.5" stroke="#355062"/>
<path fill-rule="evenodd" clip-rule="evenodd" d="M12 6C12 5.44772 11.5523 5 11 5H3C2.44772 5 2 5.44772 2 6V18C2 18.5523 2.44772 19 3 19H11C11.5523 19 12 18.5523 12 18V6ZM4.72349 7.4894C4.17121 7.4894 3.72349 7.93712 3.72349 8.4894V15.6883C3.72349 15.9801 3.96007 16.2167 4.2519 16.2167V16.2167C4.54373 16.2167 4.78031 15.9801 4.78031 15.6883V13.8076C4.78031 13.2553 5.22802 12.8076 5.78031 12.8076H6.6894V12.8076C6.82548 12.8076 6.95262 12.8793 7.0172 12.9991L8.59975 15.9345C8.69347 16.1083 8.87503 16.2167 9.07252 16.2167V16.2167C9.48064 16.2167 9.73965 15.7795 9.54357 15.4215L8.18933 12.9495C8.09453 12.7765 8.18026 12.5615 8.35559 12.4709V12.4709C8.79025 12.2437 9.11269 11.9312 9.32292 11.5334C9.53315 11.1357 9.63826 10.6797 9.63826 10.1655C9.63826 9.65133 9.53315 9.19253 9.32292 8.78912C9.11269 8.38571 8.78883 8.06895 8.35133 7.83883C7.91383 7.60588 7.35417 7.4894 6.67235 7.4894H4.72349ZM4.78031 10.853C4.78031 11.4053 5.22802 11.853 5.78031 11.853H6.65531C7.12122 11.853 7.49622 11.7849 7.78031 11.6485C8.06724 11.5121 8.27463 11.3189 8.40247 11.0689C8.53315 10.8161 8.59849 10.515 8.59849 10.1655C8.59849 9.81611 8.53315 9.51071 8.40247 9.24934C8.27179 8.98798 8.06298 8.78628 7.77605 8.64423C7.48911 8.49935 7.10985 8.4269 6.63826 8.4269H5.78031C5.22802 8.4269 4.78031 8.87462 4.78031 9.4269V10.853Z" fill="#355062"/>
<path d="M17.7727 16.1818C16.9545 16.1818 16.25 15.9886 15.6591 15.6023C15.0682 15.2159 14.6136 14.6837 14.2955 14.0057C13.9773 13.3277 13.8182 12.553 13.8182 11.6818C13.8182 10.7955 13.9811 10.0133 14.3068 9.33523C14.6364 8.65341 15.0947 8.12121 15.6818 7.73864C16.2727 7.35227 16.9621 7.15909 17.75 7.15909C18.3636 7.15909 18.9167 7.27273 19.4091 7.5C19.9015 7.72727 20.3049 8.04545 20.6193 8.45455C20.9337 8.86364 21.1288 9.34091 21.2045 9.88636H19.8636C19.7614 9.48864 19.5341 9.13636 19.1818 8.82955C18.8333 8.51894 18.3636 8.36364 17.7727 8.36364C17.25 8.36364 16.7917 8.5 16.3977 8.77273C16.0076 9.04167 15.7027 9.42235 15.483 9.91477C15.267 10.4034 15.1591 10.9773 15.1591 11.6364C15.1591 12.3106 15.2652 12.8977 15.4773 13.3977C15.6932 13.8977 15.9962 14.286 16.3864 14.5625C16.7803 14.839 17.2424 14.9773 17.7727 14.9773C18.1212 14.9773 18.4375 14.9167 18.7216 14.7955C19.0057 14.6742 19.2462 14.5 19.4432 14.2727C19.6402 14.0455 19.7803 13.7727 19.8636 13.4545H21.2045C21.1288 13.9697 20.9413 14.4337 20.642 14.8466C20.3466 15.2557 19.9545 15.5814 19.4659 15.8239C18.9811 16.0625 18.4167 16.1818 17.7727 16.1818Z" fill="#355062"/>
</g>
<defs>
<clipPath id="clip0_1_2">
<rect width="24" height="24" fill="white"/>
</clipPath>
</defs>
</svg>
